# xmcd
#
# Track frame offsets:
#	150
#	22815
#	41842
#	63724
#	85389
#	104312
#	127171
#	145325
#	167581
#	185701
#	205190
#
# Disc length: 3005 seconds
#
# Revision: 1
# Processed by: cddbd v1.5.2PL0 Copyright (c) Steve Scherf et al.
# Submitted via: EZCDAudioConverter 8.0.2.1
#
DISCID=a10bbb0b
DTITLE=Lam Anh - Anh Đã Xa Tôi
DYEAR=2011
DGENRE=World Pop
TTITLE0=Lam Anh - Anh Đã Xa Tôi
TTITLE1=Lam Anh - Bến mơ
TTITLE2=Lam Anh - Nếu mai rời xa
TTITLE3=Lam Anh, Thái Hòa - Thiên đường không xa
TTITLE4=Lam Anh - Vẫn hát lời tình yêu
TTITLE5=Lam Anh - Khoảnh khắc
TTITLE6=Lam Anh - Nếu biết xa anh
TTITLE7=Lam Anh, Tran Quang Vu - Hứa với em
TTITLE8=Lam Anh - Tình khúc dối gian
TTITLE9=Lam Anh - Chưa bao giờ
TTITLE10=Lam Anh - Nếu đã yêu
EXTD=
EXTT0=
EXTT1=
EXTT2=
EXTT3=
EXTT4=
EXTT5=
EXTT6=
EXTT7=
EXTT8=
EXTT9=
EXTT10=
PLAYORDER=
